<?xml version="1.0" encoding="utf-8"?>
<!-- Generator: Adobe Illustrator 25.1.0, SVG Export Plug-In . SVG Version: 6.00 Build 0)  -->
<svg version="1.1" id="Ebene_1" xmlns="http://www.w3.org/2000/svg" xmlns:xlink="http://www.w3.org/1999/xlink" x="0px" y="0px"
	 viewBox="0 0 1636.07 396.08" style="enable-background:new 0 0 1636.07 396.08;" xml:space="preserve">
<style type="text/css">
	.st0{fill:#FAE0B2;}
	.st1{fill:#184655;}
</style>
<g>
	<path class="st0" d="M457.71,99.12c17.22,9.52,30.73,22.96,40.53,40.32c9.8,17.37,14.7,37.38,14.7,60.06
		c0,22.68-4.9,42.78-14.7,60.27c-9.8,17.5-23.31,31.02-40.53,40.53c-17.22,9.52-36.75,14.28-58.59,14.28
		c-15.4,0-29.47-2.66-42.21-7.98c-12.74-5.32-23.46-13.3-32.13-23.94v28.98h-49.98V0h52.5v114.67c8.96-9.8,19.53-17.22,31.71-22.26
		c12.18-5.04,25.55-7.56,40.11-7.56C420.96,84.84,440.49,89.61,457.71,99.12z M440.91,250.33c12.46-12.88,18.69-29.82,18.69-50.82
		s-6.23-37.94-18.69-50.82c-12.46-12.88-28.35-19.32-47.67-19.32c-12.6,0-23.94,2.87-34.02,8.61
		c-10.08,5.74-18.06,13.93-23.94,24.57c-5.88,10.64-8.82,22.96-8.82,36.96c0,14.01,2.94,26.32,8.82,36.96
		c5.88,10.65,13.86,18.84,23.94,24.57c10.08,5.74,21.42,8.61,34.02,8.61C412.56,269.65,428.45,263.21,440.91,250.33z"/>
	<path class="st0" d="M780.07,87.36v224.29h-49.98v-28.56c-8.4,10.08-18.9,17.85-31.5,23.31c-12.6,5.46-26.19,8.19-40.74,8.19
		c-29.97,0-53.55-8.33-70.77-24.99c-17.22-16.66-25.83-41.37-25.83-74.13V87.36h52.5v120.97c0,20.16,4.55,35.22,13.65,45.15
		c9.1,9.94,22.05,14.91,38.85,14.91c18.76,0,33.67-5.81,44.73-17.43c11.06-11.62,16.59-28.35,16.59-50.19V87.36H780.07z"/>
	<path class="st0" d="M1068.62,0v311.65h-50.4v-28.98c-8.68,10.65-19.39,18.63-32.13,23.94c-12.74,5.32-26.82,7.98-42.21,7.98
		c-21.57,0-40.95-4.76-58.17-14.28c-17.22-9.52-30.73-23.03-40.53-40.53c-9.8-17.5-14.7-37.59-14.7-60.27
		c0-22.68,4.9-42.7,14.7-60.06c9.8-17.36,23.31-30.8,40.53-40.32c17.22-9.52,36.61-14.28,58.17-14.28c14.84,0,28.42,2.52,40.74,7.56
		c12.32,5.04,22.82,12.6,31.5,22.68V0H1068.62z M984.2,261.04c10.08-5.74,18.06-13.93,23.94-24.57c5.88-10.64,8.82-22.96,8.82-36.96
		c0-14-2.94-26.32-8.82-36.96c-5.88-10.64-13.86-18.83-23.94-24.57c-10.08-5.74-21.42-8.61-34.02-8.61s-23.94,2.87-34.02,8.61
		c-10.08,5.74-18.06,13.93-23.94,24.57c-5.88,10.64-8.82,22.96-8.82,36.96c0,14.01,2.94,26.32,8.82,36.96
		c5.88,10.65,13.86,18.84,23.94,24.57c10.08,5.74,21.42,8.61,34.02,8.61S974.12,266.78,984.2,261.04z"/>
	<path class="st0" d="M1357.17,0v311.65h-50.4v-28.98c-8.68,10.65-19.39,18.63-32.13,23.94c-12.75,5.32-26.82,7.98-42.21,7.98
		c-21.57,0-40.95-4.76-58.17-14.28c-17.22-9.52-30.73-23.03-40.53-40.53c-9.81-17.5-14.7-37.59-14.7-60.27
		c0-22.68,4.9-42.7,14.7-60.06c9.8-17.36,23.31-30.8,40.53-40.32c17.22-9.52,36.61-14.28,58.17-14.28c14.84,0,28.42,2.52,40.74,7.56
		c12.32,5.04,22.82,12.6,31.5,22.68V0H1357.17z M1272.75,261.04c10.08-5.74,18.06-13.93,23.94-24.57
		c5.88-10.64,8.82-22.96,8.82-36.96c0-14-2.94-26.32-8.82-36.96c-5.88-10.64-13.86-18.83-23.94-24.57
		c-10.08-5.74-21.42-8.61-34.02-8.61c-12.6,0-23.94,2.87-34.02,8.61c-10.08,5.74-18.06,13.93-23.94,24.57
		c-5.88,10.64-8.82,22.96-8.82,36.96c0,14.01,2.94,26.32,8.82,36.96c5.88,10.65,13.86,18.84,23.94,24.57
		c10.08,5.74,21.42,8.61,34.02,8.61C1251.33,269.65,1262.67,266.78,1272.75,261.04z"/>
	<g>
		<path class="st1" d="M0,200.77c0-22.96,4.83-43.19,14.49-60.69c9.66-17.5,23.1-31.08,40.32-40.74
			c17.22-9.66,36.75-14.49,58.59-14.49c22.12,0,42,4.9,59.64,14.7c17.64,9.8,31.44,23.46,41.37,40.95
			c9.94,17.5,14.91,37.17,14.91,59.01c0,22.12-5.11,41.94-15.33,59.43c-10.22,17.5-24.71,31.15-43.47,40.95
			c-18.76,9.8-40.46,14.7-65.1,14.7c-19.32,0-36.68-3.08-52.08-9.24c-15.4-6.16-28.14-15.26-38.22-27.3l28.14-32.34
			c15.96,16.24,36.27,24.36,60.9,24.36c19.32,0,35.49-4.83,48.51-14.49c13.02-9.66,21.07-22.75,24.15-39.27H0.84
			C0.28,209.59,0,204.41,0,200.77z M113.41,126.85c-17.08,0-31.36,5.04-42.84,15.12c-11.48,10.08-18.34,23.25-20.58,39.48h127.27
			c-2.52-16.52-9.59-29.75-21.21-39.69C144.42,131.82,130.21,126.85,113.41,126.85z"/>
	</g>
	<path class="st0" d="M1585.66,87.36l-70.98,165.91l-70.56-165.91h-54.6l97.86,225.13l-3.78,8.82
		c-5.04,11.2-10.57,19.18-16.59,23.94c-6.02,4.76-13.65,7.14-22.89,7.14c-7,0-13.93-1.4-20.79-4.2c-2.42-0.99-4.73-2.1-6.92-3.33
		c-9.14-5.13-19.36-8.05-29.85-8.1l-202.73-0.84c-5.79-0.02-6.44,8.43-0.71,9.28l189.27,28.2c7.09,1.22,13.74,4.08,19.74,8.05
		c5.54,3.67,11.95,6.72,19.23,9.15c10.92,3.64,21.98,5.46,33.18,5.46c19.88,0,36.82-4.97,50.82-14.91c14-9.94,25.9-27.09,35.7-51.45
		l105-242.35H1585.66z"/>
</g>
</svg>
