<?xml version="1.0" encoding="utf-8"?>
<!-- Generator: Adobe Illustrator 25.1.0, SVG Export Plug-In . SVG Version: 6.00 Build 0)  -->
<svg version="1.1" id="Ebene_1" xmlns="http://www.w3.org/2000/svg" xmlns:xlink="http://www.w3.org/1999/xlink" x="0px" y="0px"
	 viewBox="0 0 1521.57 1007.05" style="enable-background:new 0 0 1521.57 1007.05;" xml:space="preserve">
<style type="text/css">
	.st0{fill:#96D9C9;}
	.st1{fill:#50BFA5;}
	.st2{fill:#184655;}
	.st3{fill:#86B1F2;}
	.st4{fill:#FAE0B2;}
	.st5{fill:#355389;}
	.st6{fill:#466EB6;}
	.st7{fill:#FF4C16;}
	.st8{fill:#F47458;}
	.st9{fill:#B75742;}
	.st10{fill:#13375B;}
	.st11{fill:#F7A491;}
	.st12{fill:#3C8F7C;}
	.st13{fill:#9BC1F9;}
	.st14{fill:#F7CC7F;}
	.st15{fill:#F48C7F;}
	.st16{fill:#07345A;}
	.st17{fill:#FFFFFF;}
</style>
<g>
	<path class="st0" d="M908.48,313.11l18.48-17.89c-5.78-32.34-36.12-47.9-56.1-50.02c-53.8-5.71-81.22,31.28-92.77,90.6
		c-21.07,108.28,5.46,562.96,5.46,562.96c1.98-12.08,148.1-468.67,144.36-594.12L908.48,313.11z"/>
	<path class="st1" d="M173.06,670.15l-2.29,16.96l-5.49-19.62c-15.43-4.86-28.84-6.53-39.46-4.11
		c-94.93,21.57,69.11,152.13,69.11,152.13s-52.28-32.82-102.91-53.6l-0.64,17.2l-6.48-19.43c-39.34-15.4-75.84-22.52-83.14-0.28
		c-6.87,20.93,6.95,40.75,30.73,58.4l27.33,0.96l-16.11,6.76c54.91,35.17,145.75,60.33,177.1,66.05
		c-29.99-4.71-103.32-14.25-146.78-4.87l6.82,11.35l-17.16-8.58c-15.21,4.91-24.66,13.03-23.64,25.82
		c1.94,24.45,108.05,33.26,108.05,33.26l387.63-3.6l2.16,1.08C537.89,946.01,298.02,715.93,173.06,670.15z"/>
	<path class="st1" d="M1389.02,896.39c-7.48-34.71-83.39-44.92-180.15-25.89c34.45-11.77,81.79-38.57,106.3-50.82l-16.77-10.67
		l33.68,1.57c27.54-16.12,41.31-31.97,32.32-46.29c-6.72-10.7-21.46-15.15-41.45-15.1l-10.52,18.83l2.18-18.57
		c-50.41,2.91-61.84-5.32-129.84,22.17c42.49-22.06,48.63-28.9,51.42-37.76l-23.01-10.07h26.97c21.8-23.45,56.38-69.84,42.04-91.22
		c-11.84-17.64-63.8,6.85-96.97,19.57l-14.11,31.74l2.86-27.12c-105.46,45.94-69.71,9.08-69.71,9.08s110.08-227.73,45.23-222.61
		c-25.6,2.02-53.13,17.45-80.17,42.17l-0.69,22.64l-8.04-14.36c-19.69,19.3-39.2,42.69-57.81,67.78
		c25.24-53.01,44.39-105.09,46.29-143.86l-19.27-2.34l19.01-13.23c-1.79-19.59-9.55-34.4-25.27-42.23
		c-24.11-12.01-49.42,6.16-74.33,42.28l6.15,32.6l-15.45-18.26C850.7,561.82,769.14,919.76,769.14,919.76l-6.47,19.41l262.08,12.94
		C1024.75,952.11,1404.12,966.51,1389.02,896.39z"/>
	<g>
		<path class="st2" d="M1517.06,953.83H17.24c-2.49,0-4.51-1.94-4.51-4.34c0-2.4,2.02-4.34,4.51-4.34h1499.82
			c2.49,0,4.51,1.94,4.51,4.34C1521.57,951.89,1519.55,953.83,1517.06,953.83z"/>
	</g>
	<path class="st3" d="M1003.6,799.62H388.93c-23.48,0-42.51-17.27-42.51-38.57v-22.93c0-21.3,19.03-38.57,42.51-38.57h614.67l0,0
		c-28.12,27.88-28.6,70.5-1.13,98.9L1003.6,799.62z"/>
	<path class="st4" d="M994.99,711.01H685.68c-21.3,0-38.57,17.27-38.57,38.57l0,0c0,21.3,17.27,38.57,38.57,38.57h309.34
		C980.56,764.49,980.59,734.61,994.99,711.01z"/>
	<g>
		<path class="st5" d="M975.92,590.15c1.35-2.32-0.7-4.99-3.81-4.99H482.59c-38.37,0-69.47,25.67-69.47,57.33l0,0
			c0,31.66,31.1,57.33,69.47,57.33h489.65c3.13,0,5.18-2.7,3.82-5.02l0,0C956.68,661.67,956.73,623.14,975.92,590.15z"/>
		<path class="st4" d="M972.02,597.5H643.58c-24.26,0-43.93,19.67-43.93,43.93v3.3c0,24.26,19.67,43.93,43.93,43.93h329.14
			C958.01,659.44,957.84,626.7,972.02,597.5z"/>
	</g>
	<path class="st4" d="M380.17,580.07h315.91c28.01,0,50.72-24.49,50.72-54.7l0,0c0-30.21-22.71-54.7-50.72-54.7H380.17l0,0
		c24.15,30.32,25.09,74.81,2.25,106.29L380.17,580.07z"/>
	<path class="st6" d="M742.65,525.37L742.65,525.37c0-30.21-22.97-54.7-51.31-54.7H374.43c-1.48,0-2.67-1.29-2.66-2.86l0,0
		c0.01-1.55,1.2-2.81,2.66-2.81h502.74c31.27,0,56.62,27.03,56.62,60.37v0c0,33.34-25.35,60.37-56.62,60.37H374.43
		c-1.46,0-2.65-1.25-2.66-2.81l0,0c-0.01-1.58,1.18-2.86,2.66-2.86h316.91C719.68,580.07,742.65,555.58,742.65,525.37z"/>
	<g>
		<path class="st7" d="M765.04,643.44h-33.81c-7.27,0-13.16,2.25-13.16,5.04v0.45h46.97V643.44z"/>
		<path class="st8" d="M793.88,656.07c0-6.98-8.83-12.63-19.72-12.63h-43.39c8.26,0,14.96,4.29,14.96,9.58l-0.2,135.38l23.97-17.41
			l24.43,17.41L793.88,656.07z"/>
	</g>
	<g>
		<path class="st9" d="M1256.33,799.41H342.99c-28.36,0-51.35,22.99-51.35,51.35v43.2c0,28.36,22.99,51.35,51.35,51.35h913.34
			l-0.48-0.5C1216.78,904.15,1216.99,839.82,1256.33,799.41z"/>
		<path class="st4" d="M1240.16,821.01H751.91c-28.36,0-51.35,22.99-51.35,51.35v0c0,28.36,22.99,51.35,51.35,51.35h488.25
			C1222.21,891.92,1222.23,852.78,1240.16,821.01z"/>
	</g>
	<g>
		<path class="st10" d="M1000.43,872.63h-39.6c-8.52,0-15.42,6.9-15.42,15.42v1.38h55.01V872.63z"/>
		<path class="st5" d="M962.45,872.69c9.46,0,23.6,8,31.57,17.89l93.92,116.48l55.16-0.03l-89.32-110.77
			c-10.51-13.03-29.15-23.6-41.62-23.59L962.45,872.69z"/>
	</g>
	<g>
		<path class="st9" d="M135.97,932.53l19.25-4.49c0,0,15.61,0.99,30.18-1.97c0,0,1.46,3.87,2.1,11.86c0.11,1.38-1.87,8.24-3.24,8.45
			c-4.95,0.76-13.67-0.1-29.14,0.25c0,0-24.35,2.88-37.38-1.42C104.7,940.9,135.97,932.53,135.97,932.53z"/>
		<path class="st2" d="M348.59,617.52c1.07,11.17,10.45,15.11,19.19,22.18c5.87,4.74,4.86,17.56,0.37,25.53
			c-11.36,20.17-1.68,22.65,7.47,37.46c22.05,35.67-46.28,43.55-54.39,46.21c-8.11,2.66-13.61,5.88-18.41,5.34
			c-14.46-1.6-27.69-22.15-35.03-41.16c-7.34-19.01,10.48-20.01,11.39-30.93c0.91-10.92-19.94-13.26-13.76-33.88
			c6.69-22.31,16.13-41.21,28.67-47.99c20.75-11.22,45.97,0.51,51.71,9.53C347.52,612.49,348.36,615.08,348.59,617.52z"/>
		<path class="st4" d="M350.2,861.72c1.8,4.47,11.68,20.29,11.68,20.29l-138.77,1.38l-2.16-28.47
			c38.1-0.31,75.76-17.15,110.87-29.21C332.7,827.86,349.33,859.55,350.2,861.72z"/>
		<path class="st1" d="M251.82,752.52c0,0,7.45-52.6,19.44-58.06c11.99-5.46,76.89,2.11,86.61,8.04c9.71,5.93-6.47,67.71-8.95,84.99
			c-0.15,1.03-0.31,2.07-0.48,3.1c-4.1,24.95-1.73,50.47,7.07,74.07c-35.52,10.78-44.73,16.71-82.82,15.65l-14.22-83.2
			C258.48,797.11,247.17,756.85,251.82,752.52z"/>
		<path class="st11" d="M322.81,659.84c0,0,2.99,28.96,5.54,36.06c2.56,7.1-6.85,21.55-22.2,25.55c-15.35,4-4.18-15.43-4.54-22.94
			c-0.36-7.51-1.85-43.05-1.85-43.05L322.81,659.84z"/>
		<path class="st8" d="M323.17,663.17c-1.91,2.17-4.22,4.14-7.02,5.79c-5.8,3.42-11.11,4.17-15.69,3.12
			c-0.38-8.95-0.7-16.61-0.7-16.61l23.05,4.37C322.81,659.84,322.94,661.11,323.17,663.17z"/>
		<path class="st11" d="M317.43,606.94c0,0,9.06,2.39,14.39,11.23c5.33,8.84,8.29,34.41-10.72,45.61
			c-19.01,11.2-32.85-6.11-32.5-22.49C288.95,624.91,293.23,603.18,317.43,606.94z"/>
		<path class="st11" d="M282.83,634.43c0.21,4.26,2.38,7.6,4.85,7.48c2.47-0.13,4.31-3.68,4.1-7.93c-0.21-4.26-2.38-7.6-4.85-7.47
			C284.46,626.62,282.63,630.17,282.83,634.43z"/>
		<path class="st11" d="M331.3,640.95c-1.5,4.21-0.42,8.44,2.42,9.46c2.84,1.02,6.35-1.57,7.85-5.78c1.5-4.21,0.42-8.44-2.42-9.46
			C336.32,634.15,332.8,636.74,331.3,640.95z"/>
		<path class="st12" d="M357.87,702.5c0,0-11.07,5.81-17.85,22c-6.79,16.2,16.33,98.86,21.25,104.16c4.93,5.3,18.56,6.12,20.89-6.82
			C384.48,808.89,376.64,706.59,357.87,702.5z"/>
		<path class="st13" d="M291.67,691.43l19.08,114.6l-74.28,11.98l-23.58-107.2C212.89,710.81,274.01,686.06,291.67,691.43z"/>
		<path class="st13" d="M148.31,694.97c7.1-2.79,14.84-3.5,22.32-2.04c13.9,2.72,36,8.35,44.87,17.88
			c13.39,14.38,25.77,109.54,25.77,109.54l-57.74-12.95L148.31,694.97L148.31,694.97z"/>
		<path class="st14" d="M346.96,891c-9.71-26.97-119.74-125.13-148.87-117.58l15.64,59.87c0,0,32.69,97.46,64.72,110.03
			c32.03,12.57,62.03-1.62,62.03-1.62S356.67,917.97,346.96,891z"/>
		<path class="st11" d="M307.45,733.5c-1.37,2.74,7.38,7.63,9.92,9.48c2.54,1.85,13.09-0.05,13.09-0.05S308.97,730.45,307.45,733.5z
			"/>
		<path class="st15" d="M213.45,861.8c0,0-27.96,58.1-28.05,64.15c-0.13,8.72-40.43,6.32-31.67,2.6c2.01-0.86,8.35-4.07,8.84-4.49
			c2.6-2.24,25.81-74.4,25.81-74.4L213.45,861.8z"/>
		<path class="st14" d="M222.36,792.29c-1.35-1.49-15.52-7.12-26.43,6.47c-10.91,13.59-31.82,119.38-31.82,119.38l25.71,2.52
			C189.82,920.66,253.82,826.99,222.36,792.29z"/>
		<path class="st8" d="M139.19,712.97l33.08,96.43c1.33,3.87,4.63,6.65,8.56,7.2c31.01,4.39,47.19,6.62,47.19,6.62
			s6.05,0.31,12.47,0.4l70.99-7.58c6.17-0.66,10.48-6.64,9.33-12.96l-17.28-94.68c-1.07-5.85-6.44-9.75-12.12-8.8l-68.29,11.48
			c-6.04-0.16-11.91-0.32-17.95-0.48l-53.73-12.03C143.31,696.75,136.41,704.86,139.19,712.97z"/>
		<path class="st11" d="M283.67,759.87c0,0,19.05,3.53,25.56,3.34c6.51-0.2,14.94,1.86,14.94,1.86s21.26,50,24.32,55.58
			c9.11,16.65,34.36,14.69,33.94,0.8c-0.33-11.03-43.46-80.23-54.93-79.88c-11.47,0.35-47.36-7.14-48.44-2.58
			c-0.58,2.45,33.06,3.6,27.75,5.68c-3.3,1.29-29.62-1.66-29.53,1.43c0.09,3.1,23.78,3.39,26.34,5.8c2.55,2.4-25.21-2.94-25.05,2.32
			c0.08,2.65,24.46,0.74,27.13,4.76C306.8,760.65,281.65,754.66,283.67,759.87z"/>
		<g>
			<path class="st11" d="M155.2,751.71c-1.49-0.65-3.23,0.2-3.6,1.78c-0.38,1.62-0.46,3.58,0.75,4.87
				c2.39,2.57,19.05,5.03,19.14,2.55C171.56,759.01,160.38,753.95,155.2,751.71z"/>
			<path class="st11" d="M151.96,758.18c0,0-1.67,6.25-0.23,6.3c1.45,0.05,19.48,1.84,20.28-0.31
				C172.81,762.03,154.28,756.92,151.96,758.18z"/>
			<path class="st11" d="M151.18,764.63c0,0-0.51,2.77,0.98,4.38c1.49,1.6,18.28,0.55,18.9-2.11
				C171.67,764.23,151.77,762.58,151.18,764.63z"/>
			<path class="st11" d="M153.74,770.5c0,0-0.02,2.12,0.82,3.03c0.85,0.91,13.25-0.35,14.48-3
				C170.28,767.89,155.18,767.76,153.74,770.5z"/>
		</g>
		<path class="st11" d="M195.8,917.16c0,0-5.92,21.43-11.87,35.6c-3.89,9.27-4.89,18.52-7.47,23.15
			c-6.52,11.71-17.17,12.17-25.63,5.14c-8.46-7.03,2.89-36.7,2.89-36.7l26.71-37.58L195.8,917.16z"/>
		<path class="st8" d="M176.46,975.91c2.29-4.11,3.35-11.87,6.28-20.06c-4.09,2.37-10.94,4.16-14.67,3.16
			c-13.67-3.65-14.36-14.66-14.36-14.66s-14.25,30.4-5.79,37.44C156.39,988.82,169.94,987.62,176.46,975.91z"/>
		<polygon class="st9" points="223.11,711.08 244.98,824.28 231.82,823.49 228.01,823.22 205.16,710.6 		"/>
		<path class="st4" d="M299.3,936.7c7.49,13.78,22.41,15.92,35.85,14.79c14.86-1.25,31.22-9.38,35.61-26.44
			c4.69-18.22-1.48-40.77-12.3-55.06c-55.38-73.17-55.81-80.38-77.85-90.1c-23.8-10.5-112.19,140.51-112.19,140.51l24.27,12.41
			c0,0,36.41-30.43,59.67-57.11c2.74-3.14,10.52-19.37,10.52-19.37S294.35,927.59,299.3,936.7z"/>
	</g>
	<g>
		<path class="st14" d="M300.12,496.61c-23.4,3.54-30.74,34.1-11.5,48.06c3.45,2.51,5.82,6.24,6.79,10.4l3.35,14.3
			c0.92,3.94,4.72,6.51,8.72,5.91l8.87-1.34c4-0.6,6.87-4.18,6.59-8.22c-1.04-14.74-2.48-20.1,2.39-26.6
			C339.57,520.11,323.53,493.08,300.12,496.61z"/>
		<g>
			<path class="st4" d="M305.23,564.12c-0.01,0-0.02,0-0.02,0c-1.18,0.16-2.27-0.66-2.43-1.84l-4.36-31.19l-7.31-6.26
				c-0.9-0.77-1.01-2.13-0.23-3.04c0.77-0.9,2.13-1.01,3.04-0.23l8.54,7.32l4.59,32.81C307.21,562.86,306.4,563.94,305.23,564.12z"
				/>
		</g>
		<g>
			<path class="st4" d="M316.08,563.81c0.01,0,0.02,0,0.02,0c1.17-0.19,1.97-1.3,1.78-2.47l-5.05-31.09l5.13-8.14
				c0.63-1.01,0.33-2.34-0.67-2.97c-1.01-0.63-2.34-0.33-2.97,0.67l-6,9.52l5.31,32.7C313.83,563.19,314.92,563.98,316.08,563.81z"
				/>
		</g>
		<path class="st0" d="M295.31,554.72c0.03,0.12,0.07,0.23,0.1,0.35l3.35,14.3c0.92,3.94,4.72,6.51,8.72,5.91l8.87-1.34
			c4-0.6,6.87-4.18,6.59-8.22c-0.46-6.56-1-11.25-1.03-15.02L295.31,554.72z"/>
	</g>
	<path class="st8" d="M295.71,268.88l-9.27-13.41l-16.3,0.04c-1.86,0-2.91-2.12-1.79-3.6l9.89-12.96l-5.07-15.5
		c-0.58-1.76,1.12-3.43,2.87-2.81l15.38,5.4l13.17-9.61c1.5-1.1,3.6,0.01,3.56,1.86l-0.38,16.3l13.21,9.55
		c1.5,1.09,1.11,3.43-0.67,3.96l-15.62,4.68l-5,15.52C299.12,270.06,296.77,270.41,295.71,268.88z"/>
	<path class="st13" d="M1154.41,293.18l-6.81-9.85l-11.98,0.03c-1.36,0-2.14-1.56-1.31-2.64l7.26-9.52l-3.73-11.38
		c-0.42-1.3,0.82-2.52,2.11-2.06l11.3,3.97l9.67-7.06c1.1-0.8,2.65,0,2.62,1.37l-0.28,11.97l9.71,7.02c1.1,0.8,0.81,2.52-0.49,2.91
		l-11.47,3.43l-3.68,11.4C1156.91,294.05,1155.19,294.3,1154.41,293.18z"/>
	<polygon class="st15" points="963.5,148.38 948.44,145.85 939.61,158.68 922.93,154.65 917.75,171.22 898.69,167.49 892.03,182.15 
		873.11,181.56 873.33,174.4 887.48,174.84 894.5,159.36 912.83,162.95 918.1,146.1 936.5,150.56 945.12,138.02 959.08,140.37 
		963.01,130.96 969.63,133.72 	"/>
	<polygon class="st1" points="535.98,195.06 524.95,198.45 517.54,181.31 500.81,184.27 493.17,172.34 487.14,176.21 497.35,192.16 
		513.21,189.35 520.92,207.18 537.51,202.09 	"/>
	<path class="st15" d="M211.27,376.66l-16.51,10.04l17.12,76.91c1.48,6.65,9.05,9.87,14.87,6.33l0,0c3.66-2.23,5.48-6.56,4.52-10.73
		l-4.18-18.06l17.32-10.54l14.32,11.98c3.26,2.73,7.91,3.08,11.54,0.87l0.31-0.19c5.82-3.54,6.43-11.76,1.2-16.12L211.27,376.66z
		 M222.43,423l-3.16-14.13l11.11,9.29L222.43,423z"/>
	<path class="st14" d="M1207.05,449.43c0.85-2.18,0.55-9.98,11.39-17.48c4.46-3.05,8.11-5.65,9.1-9.21
		c1.71-6.14-4.76-9.09-11.2-9.06c-3.33,0.02-6.05-2.65-6.16-5.98l0,0c-0.11-3.38,2.52-6.22,5.9-6.38c3.69-0.18,8.04,0.18,12.61,1.44
		c13.82,3.84,17.99,13.23,15.57,21.92c-2.21,7.96-8.59,11.83-13.79,15.12c-8.75,5.56-8.75,11.76-9.5,13.49L1207.05,449.43z
		 M1200.31,463.13c1.54-5.55,6.52-8.45,11.97-6.94c5.66,1.57,8.22,6.57,6.78,12.15c-1.51,5.45-6.42,8.49-12.07,6.92
		C1201.44,473.71,1198.8,468.58,1200.31,463.13z"/>
	<g>
		<path class="st14" d="M745.27,49.41c-21.53,0-32.28,26.49-16.88,41.66c2.77,2.73,4.39,6.41,4.7,10.28l1.07,13.32
			c0.29,3.67,3.36,6.5,7.04,6.5h8.15c3.68,0,6.75-2.83,7.04-6.5c1.07-13.39,0.5-18.41,5.76-23.6
			C777.54,75.9,766.8,49.41,745.27,49.41z"/>
		<g>
			<path class="st4" d="M740.68,110.8c-0.01,0-0.01,0-0.02,0c-1.08-0.01-1.95-0.9-1.94-1.98l0.32-28.64l-5.72-6.62
				c-0.71-0.82-0.62-2.06,0.2-2.76c0.82-0.71,2.06-0.62,2.76,0.2l6.69,7.74l-0.33,30.12C742.63,109.94,741.76,110.8,740.68,110.8z"
				/>
		</g>
		<g>
			<path class="st4" d="M750.49,112c0.01,0,0.01,0,0.02,0c1.08-0.01,1.95-0.9,1.94-1.98l-0.32-28.64l5.72-6.62
				c0.71-0.82,0.62-2.06-0.2-2.76c-0.82-0.71-2.06-0.62-2.76,0.2l-6.69,7.74l0.33,30.12C748.54,111.14,749.41,112,750.49,112z"/>
		</g>
		<path class="st0" d="M733.04,101.01c0.01,0.11,0.03,0.22,0.04,0.33l1.07,13.32c0.29,3.67,3.36,6.5,7.04,6.5h8.15
			c3.68,0,6.75-2.83,7.04-6.5c0.48-5.96,0.63-10.26,1.11-13.65H733.04z"/>
	</g>
	<polygon class="st4" points="786.69,12.94 768.08,44.5 799.63,21.03 	"/>
	<polygon class="st4" points="711.03,4.81 730.06,37.21 726.82,0 	"/>
	<polygon class="st4" points="677.95,51.2 708.21,63.1 677.32,64.95 	"/>
	<polygon class="st4" points="771.32,93.85 783.45,109.22 792.35,98.7 	"/>
	<polygon class="st4" points="783.45,65.53 810.96,54.2 811.77,66.34 	"/>
	<polygon class="st4" points="711.45,96.27 685.56,108.41 693.65,118.12 	"/>
	<path class="st0" d="M404.28,260.1c4.23,0.34,12.51,2.06,20.11,4.23c9.31,2.66,14.75,5.19,18.83,9.49
		c3.99,3.85,6.07,9.42,4.33,15.52c-1.72,6-6.82,10.61-15.23,11.23l-0.06,0.2c7.1,4.3,11.15,11.74,8.66,20.44
		c-1.74,6.1-5.92,10.11-11.09,12.31c-6.02,2.5-14.85,2.36-28.26-1.47c-7.5-2.14-12.97-4.25-16.22-5.72L404.28,260.1z M412.02,290.24
		l5,1.43c8.01,2.29,13.25,0.22,14.68-4.79c1.46-5.1-1.67-8.92-8.58-10.89c-3.3-0.94-5.26-1.29-6.62-1.46L412.02,290.24z
		 M403.46,320.16c1.44,0.63,3.25,1.14,5.85,1.89c6.9,1.97,13.75,1.12,15.78-5.99c1.94-6.8-3.39-11.25-10.99-13.42l-5.2-1.49
		L403.46,320.16z"/>
	<path class="st14" d="M1057.37,289.28c0.86,3.75-1.44,7.53-5.18,8.43c-3.49,0.84-7.93,1.5-13.04,1.67
		c-26.58,0.9-40.83-15.18-41.57-37.09c-0.88-26.24,17.33-41.47,40.6-42.26c4.62-0.16,8.68,0.19,11.97,0.76
		c3.96,0.69,6.52,4.55,5.66,8.48l-0.05,0.24c-0.81,3.68-4.37,6.1-8.08,5.44c-2.43-0.43-5.18-0.68-8.22-0.57
		c-13.8,0.47-24.25,9.15-23.67,26.27c0.52,15.4,9.97,24.79,25.49,24.27c2.58-0.09,5.29-0.45,7.78-0.98
		C1052.82,283.13,1056.51,285.53,1057.37,289.28L1057.37,289.28z"/>
	<path class="st6" d="M195.31,647.16c-1.85-5.51,1.24-11.7,6.76-13.52c5.74-1.9,10.98,0.92,13.16,6.64
		c2.07,5.76-0.25,11.48-6.23,13.63C202.93,656.1,197.31,653.09,195.31,647.16z M193.43,630.49l-17.9-42.76
		c-1.48-3.54,0.3-7.59,3.91-8.89l4.36-1.57c3.6-1.3,7.56,0.68,8.68,4.34l13.58,44.33L193.43,630.49z"/>
	<g>
		<g>
			<path class="st15" d="M1008.72,591.69c0,0,46.13,20.1,50.2,21c2.55,0.56,31.87-29.83,47.86-41.7c0.74-0.55,3.58-4.59,4.38-4.99
				c9.51-4.78-6.57,22.74-6.57,22.74s-34.01,43.25-41.71,46.96c-9.67,4.65-57.43-18.96-57.14-20.32L1008.72,591.69z"/>
			<path class="st2" d="M1001.4,548.51c1.99-13.59,11.42-42.53,2.72-54.1c-12.24-16.27-38.1-15.57-50.32,0.07
				c-5.6,7.17-8.63,15.95-11.59,24.56c-1.91,5.55-3.83,11.14-6.52,16.37c-2.4,4.68-5.15,10.52-9.72,13.37
				c-20.31,12.65-43.06,20.8-44.52,49.3c-1.74,33.8,35.29,76.08,80.75,55.61c17.4-7.83,40.2-33.17,47.64-50.7
				c3.35-7.9,1.75-7.07-0.1-19.11C1008.08,573.08,999.8,559.46,1001.4,548.51z"/>
			<path class="st5" d="M976.67,568.72l61.76,33.98l-14.56,22.11c0,0-46.5-17.72-55.9-20.26
				C958.56,602.02,965.97,567.8,976.67,568.72z"/>
			<path class="st11" d="M975.61,539.24c0,0-1.61,23.52-2.8,30.11c-1.24,6.81-1.99,35.18,12.18,38.64
				c14.17,3.46,8.85-34.95,9.08-41.83c0.23-6.89,1.62-29.26,1.62-29.26L975.61,539.24z"/>
			<path class="st8" d="M975.41,542.06c1.06,1.58,2.34,3.11,3.86,4.54c5.22,4.92,10.59,6.52,15.49,5.88
				c0.44-7.8,0.92-15.58,0.92-15.58l-20.07,2.34C975.61,539.24,975.54,540.31,975.41,542.06z"/>
			<path class="st11" d="M990.25,494.23c0,0-8.61,0.28-15.2,7.08c-6.59,6.8-14.48,29.04,0.27,42.95
				c14.74,13.91,29.32,1.96,32.37-12.75C1010.73,516.8,1012.72,495.83,990.25,494.23z"/>
			<path class="st2" d="M998.34,494.92c0,0-8.99,23.19-30.22,21.23c-9.62-0.89-11.8,12.24-11.8,12.24s7.87-31.18,17.74-35.81
				C983.94,487.95,998.34,494.92,998.34,494.92z"/>
			<path class="st11" d="M970.85,521.77c0.48,4.07-1.35,7.63-4.1,7.96c-2.75,0.33-5.37-2.71-5.85-6.77
				c-0.48-4.07,1.35-7.63,4.1-7.96C967.75,514.66,970.37,517.7,970.85,521.77z"/>
			<path class="st9" d="M1128.64,529.39l-52.28,106.83c-1.25,2.55-0.86,5.51,0.85,6.51l38.19,22.37l47.74-94.67
				c0,0-20.8-31.12-28.6-42.8C1133.1,525.47,1130.13,526.36,1128.64,529.39z"/>
			<path class="st4" d="M1083.07,632.71l45.49-92.96c1.48-3.03,4.46-3.92,5.9-1.76c6.34,9.48,15.92,23.82,22.8,34.12l-42.85,84.97
				l-30.49-17.86C1082.21,638.22,1081.82,635.26,1083.07,632.71z"/>
			<path class="st15" d="M1107.92,563.95c0.54-0.94,3.01-2.97,4.06-3.25c2.21-0.59,4.87-0.5,5.31,0.92
				c0.64,2.07-5.88,4.36-5.88,4.36l-3.55,5.14C1107.86,571.12,1106.21,566.93,1107.92,563.95z"/>
			<path class="st11" d="M973.82,563.01c0,0,16.1,13.3,20.72,17.92c4.59,4.58,12.61,10.18,12.61,10.18l-13.01-18l-8.25-7.7
				L973.82,563.01z"/>
			<path class="st15" d="M1173.63,776.11c-2.5-2.08-4.78-8.01-5.69-10.61c-5.41-28-30.99-103.73-58.85-103.73
				c-24.27,0-99.24,58.79-134.3,92.77c-10.13,9.81-9.44,1.49-3.24,3.78c3.71,1.37,28.74,43,32.74,43.19
				c12.24,0.56,23.56-7.64,33.78-13.34c15.58-8.69,26.41-18.61,35.46-32.13c22.93-34.23,31.52-54.38,38.43-67.47
				c0,0,6.51,26.94,9.71,33.44c7.21,14.67,28.78,50.82,37.22,64.9l33.08-0.9C1191.97,786,1176.87,778.81,1173.63,776.11z"/>
			<path class="st11" d="M1111.24,677.41c0,0-111.11,51.78-118.12,69.58c-7.01,17.8-1.62,44.23,14.56,49.62
				c16.18,5.39,116.5-80.37,116.5-80.37s12.94,23.73,31.28,39.91c9.78,8.63,26.3,15.66,35.73,21.98
				c8.26,5.53,10.11,10.92,10.11,10.92l23.19,1.08c0,0-3.91-1.34-10.92-10.79C1189.91,747.44,1134.96,673.25,1111.24,677.41z"/>
			<path class="st10" d="M1068.36,670.94c0,0,35.69,38.47,42.7,89.18c0,0-55.92,24.09-83.42,38.66
				c-27.51,14.56-58.25-0.54-67.96-16.72c-9.71-16.18,0-61.76,0-61.76l57.17-8.9L1068.36,670.94z"/>
			<path class="st5" d="M1153.04,777.28c-2.84-1.08-3.84,13.3-4.31,16.51c-0.53,3.61,1.2,6.06,1.63,6.36
				c1.18,0.81,47,1.72,55.76-0.63c0.59-0.16,1.83-0.9,2.05-1.09c6.44-5.61-23.34-20.5-29.34-19.25
				C1173.51,780.28,1165.84,782.16,1153.04,777.28z"/>
			<path class="st6" d="M972.9,569.26c0,0-8.72-0.08-18.04,20c-11.46,24.68,4.89,118.85,3.7,132.29c0,0,4.04,4.64,27.56,8.04
				c20.84,3.01,32.62-11.87,32.62-11.87s-5.3-36.36,2.73-70.57c4.35-18.53,6.65-36.51-10.55-53.17
				C993.72,577.32,972.9,569.26,972.9,569.26z"/>
			<path class="st6" d="M1191.51,778.17c-2.84-1.08-5.29,12.77-5.08,16.16c0.23,3.64,1.15,6.29,1.59,6.59
				c1.18,0.81,47.04,1.48,55.81-0.87c0.59-0.16,1.83-0.9,2.05-1.09c6.43-5.61-26.67-19.66-32.67-18.41
				C1207.86,781.66,1204.3,783.05,1191.51,778.17z"/>
			<path class="st8" d="M1160.84,524.96l-86.66,126.18c-2,2.91-1.52,6.45,0.99,7.38l58.61,21.84l69.31-99.36l-34.58-57.3
				C1166.95,521.12,1163.04,521.76,1160.84,524.96z"/>
			<path class="st11" d="M1140.24,620.63c-1.11-2.15-10.11,2.63-10.11,2.63s-8.01,1.39-8.58,1.09c-0.64-0.34,5.38-0.84,5.38-0.84
				s9.84-3.36,9.73-4.47c-0.45-4.54-6.61,1.11-11.44,1.32c-3.69,0.16-7.69,0-11.25-0.51c-1.42-0.8,2.19-2.58,2.19-2.58
				s4.73-2.13,3.98-3.37c-1.84-3.02-12.91,2.72-15.24,4.85c-1.56,1.43-3.51,4.2-6.23,5.74c-11.82,6.69-25.99,18.16-42.72,26.22
				c-5.54-4.65-58.98-52.62-60.32-53.78l-29.19,22.99c0.04,0.03,83.73,63.77,88.38,63.62c5.85-0.19,40.7-36.97,50.13-45.74
				c1.43-1.33,10.39-2.32,12.85-1.98c5.48,0.77,15.74-3.53,15.74-3.53c3.16-3.34-11.66,0.03-10.25-0.84
				c0.62-0.38,4.24-0.75,7.85-1.27c3.67-0.53,7-2.63,7.45-3.63c0.87-1.96-8.26,0.86-8.26,0.86l-7.61,0.47l7.28-1.48
				C1130.01,626.38,1141.33,622.73,1140.24,620.63z"/>
			<path class="st3" d="M987.43,582.34c-9.44-9.66-27.58-8.25-32.87,5.53c-1.47,3.83-1.41,14.83,0.27,18.88
				c6.71,16.18,45.85,42.61,45.85,42.61l21.57-29.4L987.43,582.34z"/>
		</g>
	</g>
	<g>
		<path class="st11" d="M599.64,301.19c0-1.24,1.53-9.23,1.53-9.23s-3.56-11.34-3.92-11.36c-7.32-0.53-12.85,4.45-11.61,11.14
			l0.07,0.22c3.79,12.1,13.99,21.08,26.47,23.32c2.85,0.51,5.86,1.05,8.94,1.59c-1.45-4.86-2.35-9.82-2.3-14.92
			C608.12,301.86,599.64,301.65,599.64,301.19z"/>
		<path class="st5" d="M723.44,251.17c-0.2-0.61-64.36,41.13-64.36,41.13s-27.39,0.27-47.62,0.09c-0.05,6.11,0.94,12.06,2.54,17.88
			c19.99,3.78,42.77,7.78,47.95,7.38c9.65-0.74,58.07-24.9,58.07-24.9S723.59,251.62,723.44,251.17z"/>
		<path class="st6" d="M724.16,407c-0.13-1.05-13.69-47.54-15.1-89.18c-1.1-32.29,8.9-61.23,14.02-66.52
			c1.89-1.98,19.51-6.2,19.51-6.2l-6.41,10.65c-6.52,12.31-8.29,23.2-11.12,37.09c-8.2,40.27,28.66,120.84,26.79,121.36
			C749.75,414.78,724.68,411.13,724.16,407z"/>
		<polygon class="st13" points="583.54,244.49 572.28,251.85 605.95,308.51 616.53,262.5 		"/>
		<polygon class="st13" points="590.5,235.58 604.65,282.61 615.99,262.3 		"/>
		<polygon class="st13" points="683.97,230.15 694.85,269.64 614.64,262.36 		"/>
		<path class="st11" d="M638.22,397.24c0,0-34.09,41.64-34.18,47.69c-0.13,8.71-40.43,6.32-31.67,2.6c2.01-0.86,8.35-4.07,8.84-4.49
			c2.6-2.24,29.46-54.81,29.46-54.81L638.22,397.24z"/>
		<path class="st16" d="M554.61,451.5l25.91-8.06c0,0,8.94,4.56,23.51,1.6c0,0,3.8,6.1,4.43,14.09c0.11,1.38,0.79,5.47-0.58,5.68
			c-4.95,0.76-18.67,0.44-34.14,0.79c0,0-20.84,0.24-33.87-4.06C526.85,457.25,554.61,451.5,554.61,451.5z"/>
		<path class="st9" d="M803.26,407.18c0,0-30.67-7.01-59.33-27.51c-33.16-23.72-70.48-48.4-85.22-46.39
			c-11.87,1.62-80.91,96.55-80.91,96.55l33.44,14.56l60.41-62.03c0,0,61.71,63.62,81.98,67.96
			C799.82,460.22,814.57,426.17,803.26,407.18z"/>
		<path class="st14" d="M570.7,251.86l46.51,98.53c0.21,0.45,0.62,0.77,1.1,0.89l31.06,8.64l-39.69-97.6l-36.98-12.66
			C571.34,249.17,570.09,250.56,570.7,251.86z"/>
		<path class="st16" d="M728.97,158.77c0,0,8.59-11.71,18.18,0c0,0,5.71-4.23,10.8,1.37c0,0,10.68-4.75,15.48,11.51
			c0,0,5.58-1.8,7.19,4.89c1.62,6.7-1.26,11.66-1.26,11.66s3.52,2,2.85,8.43c-0.57,5.47-4.86,6.83-4.86,6.83s-0.05,9.1-3.59,12.29
			c-3.54,3.19-8.99,2.56-8.99,2.56s-0.79,5.03-5.37,5.17c-4.58,0.14-10.74-3.46-15.56-0.88c-4.82,2.58-18.23,2.2-18.23,2.2
			s-15.6-4.7-13.1-20.36c0,0-8.65-6.02-2.92-15.29c0,0-6.63-12.52,2.2-21.53C720.63,158.63,728.97,158.77,728.97,158.77z"/>
		<path class="st11" d="M681.64,529.62c0,0,1.89,51.24,3.06,59.92c1.16,8.64-21.75,34.66-18.82,25.61c0.67-2.08,2.41-8.97,2.41-9.62
			c0.01-3.44-8.5-61.89-8.5-61.89L681.64,529.62z"/>
		<path class="st16" d="M657.23,631.16l10.91-24.85c0,0,9.3-3.76,16.63-16.7c0,0,7.1,1.13,13.55,5.9c1.11,0.82,4.64,2.99,3.91,4.16
			c-2.67,4.24-11.91,14.38-21.79,26.29c0,0-13.49,15.89-25.28,22.9C643.36,655.87,657.23,631.16,657.23,631.16z"/>
		<path class="st8" d="M659.25,583.02c2.39-2.43-24.25-133.52-11.33-146.17c12.92-12.65,99.24-31.28,99.24-31.28l11.33-39.91
			c0,0,36.09,10.58,50.7,32.36c7.99,11.91-0.18,39.07-1.62,42.07c-12.33,25.67-42.79,26.97-64.95,26.74
			c-20.39-0.21-56.59-0.49-56.59-0.49l-0.09,115.87c0,0-8.9,2.16-15.91,1.89C660.45,583.73,659.25,583.02,659.25,583.02z"/>
		<path class="st17" d="M739.27,247.91l23.38-8.4c0,0,0.71,0.04,0.92,0.01c2.51-0.32,30.09,89.94,39.1,124.08
			c9,34.14-2.79,27.67-2.79,27.67s-20.62,12.85-44.62,13.76c-24.95,0.94-19.96-29.13-19.96-29.13s-13.14-62.78-11.6-84.14
			C725.25,270.39,739.27,247.91,739.27,247.91z"/>
		<path class="st11" d="M739.65,229.55l-0.09,11.51l-0.02,2.04c0,0-1.59,19.7,4.05,22.74c5.64,3.04,19.04-26.33,19.04-26.33
			l-6.07-33.42L739.65,229.55z"/>
		<path class="st8" d="M758.53,216.96c-2.81,12.05-12.1,20.42-18.97,24.08l0.09-11.49l16.92-23.46L758.53,216.96z"/>
		<path class="st11" d="M740.12,172.15c-10.96-2.28-21.27,6.11-21.5,17.14c-0.1,4.79,0.02,10.79,0.72,17.27
			c1.69,15.59,11.66,29.71,18.73,28.82c7.06-0.9,25.31-13.44,23.22-35.62C760,186.07,751.62,174.55,740.12,172.15z"/>
		<path class="st11" d="M756.31,202.17c0.44,3.43,3.06,5.93,5.87,5.57c2.81-0.36,4.73-3.43,4.29-6.86
			c-0.44-3.43-3.06-5.93-5.87-5.57C757.79,195.67,755.87,198.74,756.31,202.17z"/>
		<path class="st16" d="M708.53,168.29c-6.56,6.71-8.01,15.81-3.22,20.34c4.78,4.53,13.98,2.76,20.55-3.94
			c6.56-6.71,8.01-15.81,3.22-20.34C724.3,159.82,715.1,161.58,708.53,168.29z"/>
		<path class="st16" d="M728.21,170.61c0.32,2.51,3.61,4.16,7.35,3.69c3.74-0.47,6.52-2.9,6.2-5.41c-0.32-2.51-3.61-4.16-7.35-3.69
			C730.67,165.68,727.89,168.1,728.21,170.61z"/>
		<path class="st16" d="M710.5,192.5c0.41,3.23,3.33,5.52,6.52,5.12c3.19-0.41,5.45-3.35,5.04-6.58c-0.41-3.23-3.33-5.52-6.52-5.12
			C712.35,186.32,710.09,189.27,710.5,192.5z"/>
		<path class="st6" d="M762.64,239.51c0,0,22.88-3.71,30.57-0.44c4.89,2.08,11.11,43.57,11.11,43.57s0.25,41.96,3.11,53.8
			c9.7,40.11,23.24,75.24,21.72,77.22c-9.95,8.18-51.58,15.76-54.75,11.87C739.48,382.48,762.64,239.51,762.64,239.51z"/>
		<path class="st11" d="M800.84,282.05c0,0-22.92,70.83-32.94,78.25c-10.02,7.43-55.11-62.07-55.11-62.07s-19.96-11.33-21.38-11.45
			c-5.66-0.47,11.8-3.39,11.8-3.39l2.16-18.07c0,0,0.85,0.13,6.07,6c7.05,7.94,13.17,20.24,16.05,22.32l30.2,22.92l15.37-49.08
			L800.84,282.05z"/>
		<polygon class="st4" points="609.67,262.3 619.16,261.37 659.81,362.55 649.36,359.9 		"/>
		<path class="st14" d="M700.08,237.64l24.47,119.12c0.4,1.97-1.06,3.82-3.07,3.89l-61.67,1.9l-40.65-101.17l76.71-26.15
			C697.71,234.6,699.69,235.74,700.08,237.64z"/>
		<path class="st3" d="M724.92,289.33l-7.82,17.13c0,0,38.43,63.24,50.3,59.74c11.87-3.51,34.25-72.01,37.76-90.88
			c3.51-18.88-3.78-34.52-13.48-36.95c-9.71-2.43-17.26,14.02-20.23,21.04c-2.97,7.01-13.75,57.17-13.75,57.17L724.92,289.33z"/>
		<g>
			<path class="st11" d="M588.29,290.28c0,0-1.44-2.53-1.9-4.07c-0.46-1.54,9-6.91,12.74-4.46
				C602.87,284.18,592.88,287.91,588.29,290.28z"/>
		</g>
		<g>
			<path class="st11" d="M588.69,296.46c0,0-2.37-2.49-2.84-4.04c-0.46-1.54,12.13-7.88,15.87-5.43
				C605.46,289.44,593.27,294.1,588.69,296.46z"/>
		</g>
		<g>
			<path class="st11" d="M593,300.78c0,0-2.37-2.49-2.84-4.04c-0.46-1.54,9-6.91,12.74-4.46C606.65,294.72,597.58,298.41,593,300.78
				z"/>
		</g>
		<path class="st11" d="M707.39,272.34h-1.96c-0.93,0-1.86-0.1-2.77-0.3c-3.63-0.79-13.55-2.76-14.32-0.78
			c-0.94,2.43,14.29,5.26,14.29,5.26s-16.72-2.16-16.72,0.67c0,2.83,16.99,4.31,16.99,4.31s-14.83-0.54-15.1,1.08
			c-0.27,1.62,18.2,6.2,18.2,6.2s-14.97-3.24-16.45-1.35c-1.48,1.89,23.46,10.99,23.46,10.99L707.39,272.34z"/>
		<path class="st11" d="M593,300.78c0,0,8.18-4.62,10.34-3.18c2.16,1.44-7.01,8.36-7.01,8.36l1.1,2.53
			C597.43,308.49,591.56,303.96,593,300.78z"/>
	</g>
</g>
</svg>
