<?xml version="1.0" encoding="utf-8"?>
<!-- Generator: Adobe Illustrator 25.1.0, SVG Export Plug-In . SVG Version: 6.00 Build 0)  -->
<svg version="1.1" id="Ebene_1" xmlns="http://www.w3.org/2000/svg" xmlns:xlink="http://www.w3.org/1999/xlink" x="0px" y="0px"
	 viewBox="0 0 127.17 216.18" style="enable-background:new 0 0 127.17 216.18;" xml:space="preserve">
<style type="text/css">
	.st0{fill:#F48C7F;}
</style>
<g>
	<g>
		<path class="st0" d="M118.66,1.09c1.96-0.56,3.95-1.12,5.99-1.09c2.03,1.34,3,3.96,2.28,6.3c-6.41,32.28-13.06,64.52-19.42,96.82
			c-0.32,2.45-1.29,4.75-3.05,6.54c-10.04-5.42-19.03-12.53-28.71-18.56c-3.24-2.33-7.08-4.1-9.55-7.33
			c0.12-3.06,2.58-5.43,3.91-8.06c-4.78-3.01-9.09-6.67-13.79-9.76c-2.03,1.27-3.81,2.89-5.9,4.09c-2.77,0.72-3.85-2.41-4.99-4.25
			c-5.68-11.12-11.76-22.03-17.29-33.23c-1.48-2.15-0.22-4.95,2.39-5.26C59.84,18.43,89.33,10.01,118.66,1.09z M34.45,32.25
			c5.37,10.15,10.59,20.37,15.99,30.5C71.76,44.91,92.47,26.3,114.06,8.79C87.44,16.36,60.98,24.44,34.45,32.25z M72.98,82.09
			c9.59,6.5,19.13,13.08,28.94,19.26c5.53-28.38,11.22-56.75,17.2-85.05C103.64,38.17,88.46,60.22,72.98,82.09z M60.82,61.57
			c4.04,3.48,8.41,6.57,12.81,9.57c12.06-17.26,23.99-34.62,36.27-51.73C93.83,33.78,77.28,47.64,60.82,61.57z"/>
	</g>
	<path class="st0" d="M6.34,216.18c-0.68-20.41-1.28-40.84,3.71-60.81c5.66-24.83,20.91-46.02,37.65-64.67
		c1.92-2.25,6.32-7.11,1.85-8.94c-2.33-1.02-3.48,1.49-4.73,2.93c-4.26,5.8-9.31,10.96-13.71,16.65
		c-13.16,16.62-23.55,35.8-27.7,56.75c-4.2,19.12-3.6,38.63-2.96,58.09H6.34z"/>
</g>
</svg>
